<mxfile host="app.diagrams.net" modified="2023-05-28T16:07:58.058Z" agent="Mozilla/5.0 (Windows NT 10.0; Win64; x64) AppleWebKit/537.36 (KHTML, like Gecko) Chrome/113.0.0.0 Safari/537.36 Edg/113.0.1774.57" etag="S-bsZDt9dw311A_5JSsM" version="21.3.5" type="device">
  <diagram name="Página-1" id="6r5kCsM99uUeNAKcp-Lj">
    <mxGraphModel dx="777" dy="522" grid="1" gridSize="10" guides="1" tooltips="1" connect="1" arrows="1" fold="1" page="1" pageScale="1" pageWidth="827" pageHeight="1169" math="0" shadow="0">
      <root>
        <mxCell id="0" />
        <mxCell id="1" parent="0" />
        <mxCell id="N3ddiHiPjsOhnbHNJZr5-4" style="edgeStyle=orthogonalEdgeStyle;rounded=0;orthogonalLoop=1;jettySize=auto;html=1;exitX=1;exitY=0.5;exitDx=0;exitDy=0;" edge="1" parent="1" source="N3ddiHiPjsOhnbHNJZr5-1">
          <mxGeometry relative="1" as="geometry">
            <mxPoint x="270" y="350" as="targetPoint" />
          </mxGeometry>
        </mxCell>
        <mxCell id="N3ddiHiPjsOhnbHNJZr5-1" value="Pessoa&amp;nbsp;" style="rounded=0;whiteSpace=wrap;html=1;" vertex="1" parent="1">
          <mxGeometry x="40" y="320" width="120" height="60" as="geometry" />
        </mxCell>
        <mxCell id="N3ddiHiPjsOhnbHNJZr5-6" style="edgeStyle=orthogonalEdgeStyle;rounded=0;orthogonalLoop=1;jettySize=auto;html=1;exitX=1;exitY=0.5;exitDx=0;exitDy=0;entryX=0;entryY=0.5;entryDx=0;entryDy=0;" edge="1" parent="1" source="N3ddiHiPjsOhnbHNJZr5-2" target="N3ddiHiPjsOhnbHNJZr5-3">
          <mxGeometry relative="1" as="geometry" />
        </mxCell>
        <mxCell id="N3ddiHiPjsOhnbHNJZr5-2" value="Propriedade" style="rhombus;whiteSpace=wrap;html=1;" vertex="1" parent="1">
          <mxGeometry x="280" y="310" width="80" height="80" as="geometry" />
        </mxCell>
        <mxCell id="N3ddiHiPjsOhnbHNJZr5-3" value="Aluguel" style="rounded=0;whiteSpace=wrap;html=1;" vertex="1" parent="1">
          <mxGeometry x="480" y="320" width="120" height="60" as="geometry" />
        </mxCell>
        <mxCell id="N3ddiHiPjsOhnbHNJZr5-7" value="Pessoa" style="swimlane;fontStyle=0;childLayout=stackLayout;horizontal=1;startSize=30;horizontalStack=0;resizeParent=1;resizeParentMax=0;resizeLast=0;collapsible=1;marginBottom=0;whiteSpace=wrap;html=1;" vertex="1" parent="1">
          <mxGeometry x="40" y="465" width="140" height="90" as="geometry" />
        </mxCell>
        <mxCell id="N3ddiHiPjsOhnbHNJZr5-8" value="pesosa_id(pk)" style="text;strokeColor=none;fillColor=none;align=left;verticalAlign=middle;spacingLeft=4;spacingRight=4;overflow=hidden;points=[[0,0.5],[1,0.5]];portConstraint=eastwest;rotatable=0;whiteSpace=wrap;html=1;" vertex="1" parent="N3ddiHiPjsOhnbHNJZr5-7">
          <mxGeometry y="30" width="140" height="30" as="geometry" />
        </mxCell>
        <mxCell id="N3ddiHiPjsOhnbHNJZr5-9" value="nome" style="text;strokeColor=none;fillColor=none;align=left;verticalAlign=middle;spacingLeft=4;spacingRight=4;overflow=hidden;points=[[0,0.5],[1,0.5]];portConstraint=eastwest;rotatable=0;whiteSpace=wrap;html=1;" vertex="1" parent="N3ddiHiPjsOhnbHNJZr5-7">
          <mxGeometry y="60" width="140" height="30" as="geometry" />
        </mxCell>
        <mxCell id="N3ddiHiPjsOhnbHNJZr5-11" value="Propriedade" style="swimlane;fontStyle=0;childLayout=stackLayout;horizontal=1;startSize=30;horizontalStack=0;resizeParent=1;resizeParentMax=0;resizeLast=0;collapsible=1;marginBottom=0;whiteSpace=wrap;html=1;" vertex="1" parent="1">
          <mxGeometry x="250" y="470" width="140" height="90" as="geometry" />
        </mxCell>
        <mxCell id="N3ddiHiPjsOhnbHNJZr5-12" value="propriedade_id(pk)" style="text;strokeColor=none;fillColor=none;align=left;verticalAlign=middle;spacingLeft=4;spacingRight=4;overflow=hidden;points=[[0,0.5],[1,0.5]];portConstraint=eastwest;rotatable=0;whiteSpace=wrap;html=1;" vertex="1" parent="N3ddiHiPjsOhnbHNJZr5-11">
          <mxGeometry y="30" width="140" height="30" as="geometry" />
        </mxCell>
        <mxCell id="N3ddiHiPjsOhnbHNJZr5-13" value="endereço" style="text;strokeColor=none;fillColor=none;align=left;verticalAlign=middle;spacingLeft=4;spacingRight=4;overflow=hidden;points=[[0,0.5],[1,0.5]];portConstraint=eastwest;rotatable=0;whiteSpace=wrap;html=1;" vertex="1" parent="N3ddiHiPjsOhnbHNJZr5-11">
          <mxGeometry y="60" width="140" height="30" as="geometry" />
        </mxCell>
        <mxCell id="N3ddiHiPjsOhnbHNJZr5-15" value="Aluguel" style="swimlane;fontStyle=0;childLayout=stackLayout;horizontal=1;startSize=30;horizontalStack=0;resizeParent=1;resizeParentMax=0;resizeLast=0;collapsible=1;marginBottom=0;whiteSpace=wrap;html=1;" vertex="1" parent="1">
          <mxGeometry x="480" y="470" width="120" height="120" as="geometry" />
        </mxCell>
        <mxCell id="N3ddiHiPjsOhnbHNJZr5-16" value="aluguel_id(pk)" style="text;strokeColor=none;fillColor=none;align=left;verticalAlign=middle;spacingLeft=4;spacingRight=4;overflow=hidden;points=[[0,0.5],[1,0.5]];portConstraint=eastwest;rotatable=0;whiteSpace=wrap;html=1;" vertex="1" parent="N3ddiHiPjsOhnbHNJZr5-15">
          <mxGeometry y="30" width="120" height="30" as="geometry" />
        </mxCell>
        <mxCell id="N3ddiHiPjsOhnbHNJZr5-17" value="pessoa_id(fk)" style="text;strokeColor=none;fillColor=none;align=left;verticalAlign=middle;spacingLeft=4;spacingRight=4;overflow=hidden;points=[[0,0.5],[1,0.5]];portConstraint=eastwest;rotatable=0;whiteSpace=wrap;html=1;" vertex="1" parent="N3ddiHiPjsOhnbHNJZr5-15">
          <mxGeometry y="60" width="120" height="30" as="geometry" />
        </mxCell>
        <mxCell id="N3ddiHiPjsOhnbHNJZr5-18" value="propriedade_id(fk)" style="text;strokeColor=none;fillColor=none;align=left;verticalAlign=middle;spacingLeft=4;spacingRight=4;overflow=hidden;points=[[0,0.5],[1,0.5]];portConstraint=eastwest;rotatable=0;whiteSpace=wrap;html=1;" vertex="1" parent="N3ddiHiPjsOhnbHNJZr5-15">
          <mxGeometry y="90" width="120" height="30" as="geometry" />
        </mxCell>
        <mxCell id="N3ddiHiPjsOhnbHNJZr5-34" style="edgeStyle=orthogonalEdgeStyle;rounded=0;orthogonalLoop=1;jettySize=auto;html=1;" edge="1" parent="1" target="N3ddiHiPjsOhnbHNJZr5-17">
          <mxGeometry relative="1" as="geometry">
            <mxPoint x="180" y="520" as="sourcePoint" />
            <Array as="points">
              <mxPoint x="180" y="510" />
              <mxPoint x="200" y="510" />
              <mxPoint x="200" y="600" />
              <mxPoint x="430" y="600" />
              <mxPoint x="430" y="545" />
            </Array>
          </mxGeometry>
        </mxCell>
        <mxCell id="N3ddiHiPjsOhnbHNJZr5-36" style="edgeStyle=orthogonalEdgeStyle;rounded=0;orthogonalLoop=1;jettySize=auto;html=1;exitX=1;exitY=0.5;exitDx=0;exitDy=0;entryX=0;entryY=0.5;entryDx=0;entryDy=0;" edge="1" parent="1" source="N3ddiHiPjsOhnbHNJZr5-12" target="N3ddiHiPjsOhnbHNJZr5-18">
          <mxGeometry relative="1" as="geometry" />
        </mxCell>
      </root>
    </mxGraphModel>
  </diagram>
</mxfile>
